<svg width="32" height="32" viewBox="0 0 32 32" fill="none" xmlns="http://www.w3.org/2000/svg">
  <path d="M27.1451 23.669C26.7361 24.6307 26.2309 25.5478 25.6371 26.406C24.844 27.5488 24.1927 28.3385 23.6935 28.778C22.9181 29.4961 22.0851 29.8656 21.1945 29.8865C20.5565 29.8865 19.7855 29.7032 18.8875 29.3308C17.9866 28.9598 17.1595 28.778 16.4019 28.778C15.6087 28.778 14.758 28.9598 13.8467 29.3308C12.937 29.7032 12.2014 29.8984 11.6387 29.9163C10.7865 29.9535 9.93434 29.5751 9.0851 28.778C8.54306 28.3012 7.86515 27.4817 7.05135 26.3226C6.17996 25.0874 5.46365 23.6496 4.90241 22.0151C4.3013 20.2466 4 18.5361 4 16.8793C4 14.9826 4.40616 13.3452 5.21995 11.9744C5.83546 10.8979 6.71542 9.99942 7.77505 9.36555C8.81994 8.73332 10.0127 8.3929 11.2311 8.37921C11.9105 8.37921 12.8011 8.59078 13.9043 9.00796C15.0076 9.42514 15.7166 9.63672 16.0252 9.63672C16.2586 9.63672 17.0428 9.3879 18.378 8.89473C19.6378 8.43731 20.7012 8.24809 21.5726 8.32259C23.9357 8.51479 25.7095 9.45345 26.8896 11.146C24.7776 12.4378 23.7334 14.2451 23.7541 16.5649C23.7718 18.3722 24.4231 19.8756 25.6992 21.069C26.2633 21.6137 26.9216 22.0495 27.6414 22.3549C27.4848 22.8123 27.3194 23.2488 27.1451 23.669ZM21.7292 2.16764C21.7292 3.58309 21.2152 4.90615 20.1946 6.1294C18.9599 7.58358 17.4682 8.42539 15.851 8.29279C15.8298 8.1148 15.8194 7.93567 15.8199 7.75641C15.8199 6.39609 16.4048 4.94191 17.449 3.75145C17.9689 3.14951 18.6306 2.6474 19.4325 2.2481C20.233 1.85476 20.9892 1.63722 21.7011 1.59998C21.7203 1.79069 21.7292 1.97991 21.7292 2.16764Z" fill="#0071E4" />
</svg>